HIERARCHY
ROOT Hips
{
	OFFSET	0.00	0.00	0.00
	CHANNELS 6 Xposition Yposition Zposition Zrotation Xrotation Yrotation
	JOINT LeftUpLeg
	{
		OFFSET	 0.126116	-0.065224	 0.014019
		CHANNELS 3 Zrotation Xrotation Yrotation
		JOINT LeftLeg
		{
			OFFSET	 0.000000	 0.569914	 0.000000
			CHANNELS 3 Zrotation Xrotation Yrotation
			JOINT LeftFoot
			{
				OFFSET	 0.000000	 0.544423	 0.000000
				CHANNELS 3 Zrotation Xrotation Yrotation
				JOINT LeftToeBase
				{
					OFFSET	 0.000000	 0.207117	 0.000000
					CHANNELS 3 Zrotation Xrotation Yrotation
					End Site
					{
						OFFSET	 0.000000	 0.207117	 0.000000
					}
				}
			}
		}
	}
	JOINT RightUpLeg
	{
		OFFSET	-0.124023	-0.065224	 0.008373
		CHANNELS 3 Zrotation Xrotation Yrotation
		JOINT RightLeg
		{
			OFFSET	 0.000000	 0.570047	 0.000000
			CHANNELS 3 Zrotation Xrotation Yrotation
			JOINT RightFoot
			{
				OFFSET	 0.000000	 0.544354	 0.000000
				CHANNELS 3 Zrotation Xrotation Yrotation
				JOINT RightToeBase
				{
					OFFSET	 0.000000	 0.207540	 0.000000
					CHANNELS 3 Zrotation Xrotation Yrotation
					End Site
					{
						OFFSET	 0.000000	 0.207540	 0.000000
					}
				}
			}
		}
	}
	JOINT Spine
	{
		OFFSET	 0.000184	 0.117403	 0.007763
		CHANNELS 3 Zrotation Xrotation Yrotation
		JOINT Spine1
		{
			OFFSET	 0.000000	 0.137269	 0.000000
			CHANNELS 3 Zrotation Xrotation Yrotation
			JOINT Spine2
			{
				OFFSET	 0.000000	 0.156879	 0.000000
				CHANNELS 3 Zrotation Xrotation Yrotation
				JOINT LeftShoulder
				{
					OFFSET	 0.080501	 0.160143	 0.002496
					CHANNELS 3 Zrotation Xrotation Yrotation
					JOINT LeftArm
					{
						OFFSET	 0.000000	 0.164363	 0.000000
						CHANNELS 3 Zrotation Xrotation Yrotation
						JOINT LeftForeArm
						{
							OFFSET	 0.000000	 0.364576	 0.000000
							CHANNELS 3 Zrotation Xrotation Yrotation
							JOINT LeftHand
							{
								OFFSET	 0.000000	 0.360812	 0.000000
								CHANNELS 3 Zrotation Xrotation Yrotation
								JOINT LeftHandIndex1
								{
									OFFSET	 0.000000	 0.086006	 0.000000
									CHANNELS 3 Zrotation Xrotation Yrotation
									JOINT LeftHandIndex2
									{
										OFFSET	 0.000000	 0.047237	 0.000000
										CHANNELS 3 Zrotation Xrotation Yrotation
										JOINT LeftHandIndex3
										{
											OFFSET	-0.004284	 0.038165	 0.000551
											CHANNELS 3 Zrotation Xrotation Yrotation
											End Site
											{
												OFFSET	-0.004284	 0.038165	 0.000551
											}
										}
									}
								}
							}
						}
					}
				}
				JOINT Neck
				{
					OFFSET	 0.000000	 0.176489	 0.000000
					CHANNELS 3 Zrotation Xrotation Yrotation
					JOINT Head
					{
						OFFSET	 0.000000	 0.077941	 0.001747
						CHANNELS 3 Zrotation Xrotation Yrotation
						End Site
						{
							OFFSET	 0.000000	 0.077941	 0.001747
						}
					}
				}
				JOINT RightShoulder
				{
					OFFSET	-0.080363	 0.159706	-0.000306
					CHANNELS 3 Zrotation Xrotation Yrotation
					JOINT RightArm
					{
						OFFSET	 0.000000	 0.164196	 0.000000
						CHANNELS 3 Zrotation Xrotation Yrotation
						JOINT RightForeArm
						{
							OFFSET	 0.000000	 0.365611	 0.000000
							CHANNELS 3 Zrotation Xrotation Yrotation
							JOINT RightHand
							{
								OFFSET	 0.000000	 0.360648	 0.000000
								CHANNELS 3 Zrotation Xrotation Yrotation
								JOINT RightHandIndex1
								{
									OFFSET	 0.000000	 0.069977	 0.000000
									CHANNELS 3 Zrotation Xrotation Yrotation
									JOINT RightHandIndex2
									{
										OFFSET	 0.000000	 0.052305	 0.000000
										CHANNELS 3 Zrotation Xrotation Yrotation
										JOINT RightHandIndex3
										{
											OFFSET	 0.009002	 0.042196	 0.000782
											CHANNELS 3 Zrotation Xrotation Yrotation
											End Site
											{
												OFFSET	 0.009002	 0.042196	 0.000782
											}
										}
									}
								}
							}
						}
					}
				}
			}
		}
	}
}
MOTION
Frames:    9
Frame Time: 0.03333334
 0.002129	 1.255261	-0.176577	-0.299741	 0.003713	-179.994400	-174.997700	 1.935237	-24.982350	 4.028359	-18.345730	 0.393306	-10.125130	 75.835110	 7.661119	 1.292262	 28.425850	-2.713146	 175.940700	-13.632600	 24.403500	-1.015319	-4.926104	 0.222574	 12.295860	 77.331540	-7.468486	-1.288183	 28.361890	 2.710176	 0.203803	 2.846089	 1.252847	-1.628293	 3.348120	 3.673367	 1.516061	-4.215895	-10.681910	-101.478000	 1.740674	 90.353390	 54.361450	 40.915580	-39.879570	 2.536157	 3.911862	 3.156358	-18.926490	 11.275820	 47.299230	-6.580301	 5.266122	 0.000000	 0.000000	 0.000000	 0.000000	 0.000000	 0.000000	 0.000000	 0.089846	-3.783161	 0.005928	 0.023221	 1.006905	-2.642086	 101.796200	-0.213320	-89.955450	-80.817470	 10.423040	 65.524890	-38.214860	 42.801470	 9.118402	 44.032340	-56.198670	-66.085860	 15.208500	 5.323790	 0.000000	 0.000000	 0.000000	 0.000000	 0.000000	 0.000000	 0.000000
 0.002129	 1.255261	-0.176577	-0.299741	 0.003713	-179.994400	-174.997700	 1.935237	-24.982350	 4.028359	-18.345730	 0.393306	-10.125130	 75.835110	 7.661119	 1.292262	 28.425850	-2.713146	 175.940700	-13.632600	 24.403500	-1.015319	-4.926104	 0.222574	 12.295860	 77.331540	-7.468486	-1.288183	 28.361890	 2.710176	 0.715109	 2.762379	-9.169497	-1.628293	 3.348120	 3.673367	 1.516061	-4.215895	-10.681910	-101.478000	 1.740674	 90.353390	 54.778120	 41.168490	-40.367910	 5.450875	 3.976418	 10.814730	-18.055860	 8.070992	 35.399740	-6.580301	 5.266122	 0.000000	 0.000000	 0.000000	 0.000000	 0.000000	 0.000000	 0.000000	 0.089846	-3.783161	 0.005928	 0.023221	 1.006905	-2.642086	 101.796200	-0.213320	-89.955450	-68.882070	 17.486500	 61.562950	-62.397450	 50.582020	 19.994040	 52.103050	-62.873100	-40.575820	 15.208500	 5.323790	 0.000000	 0.000000	 0.000000	 0.000000	 0.000000	 0.000000	 0.000000
 0.002129	 1.255261	-0.176577	-0.299741	 0.003713	-179.994400	-174.997700	 1.935185	-24.982310	 4.028341	-18.345680	 0.393302	-10.125010	 75.835100	 7.660982	 1.292262	 28.425850	-2.713146	 175.940700	-13.632600	 24.403490	-1.015319	-4.926095	 0.222563	 12.295760	 77.331540	-7.468393	-1.288183	 28.361890	 2.710176	 1.157899	 2.608048	-18.599460	-1.628294	 3.348120	 3.673366	 1.516060	-4.215887	-10.681920	-101.478000	 1.740679	 90.353390	 55.273490	 41.464260	-40.939120	 8.389674	 4.031131	 18.532160	-16.631660	 2.993137	 22.018510	-6.580301	 5.266122	 0.000000	 0.000000	 0.000000	 0.000000	 0.000000	 0.000000	 0.000000	 0.089846	-3.783161	 0.005928	 0.023221	 1.006905	-2.642085	 101.796200	-0.213310	-89.955460	-55.588160	 24.351990	 53.351290	-85.708820	 51.618420	 31.724270	 56.027710	-70.689030	-14.709160	 15.208500	 5.323790	 0.000000	 0.000000	 0.000000	 0.000000	 0.000000	 0.000000	 0.000000
 0.002129	 1.255261	-0.176577	-0.299741	 0.003713	-179.994400	-174.997700	 1.935237	-24.982350	 4.028359	-18.345730	 0.393306	-10.125130	 75.835110	 7.661119	 1.292262	 28.425850	-2.713146	 175.940700	-13.632600	 24.403500	-1.015319	-4.926104	 0.222574	 12.295860	 77.331540	-7.468486	-1.288183	 28.361890	 2.710176	 0.972402	 2.682694	-14.582240	-1.628293	 3.348120	 3.673367	 1.516061	-4.215895	-10.681910	-101.478000	 1.740674	 90.353390	 58.524850	 43.290550	-44.685200	 21.805760	 4.143840	 53.731770	-17.089860	 0.507408	-35.085490	-6.580301	 5.266122	 0.000000	 0.000000	 0.000000	 0.000000	 0.000000	 0.000000	 0.000000	 0.089846	-3.783161	 0.005928	 0.023221	 1.006905	-2.642086	 101.796200	-0.213320	-89.955450	-2.168327	 49.764370	-5.240959	-45.384240	 26.949240	-36.616930	-1.589860	-35.670010	 66.908870	 15.208500	 5.323790	 0.000000	 0.000000	 0.000000	 0.000000	 0.000000	 0.000000	 0.000000
 0.002129	 1.255261	-0.176577	-0.299741	 0.003713	-179.994400	-174.997700	 1.935237	-24.982350	 4.028359	-18.345730	 0.393306	-10.125130	 75.835110	 7.661119	 1.292262	 28.425850	-2.713146	 175.940700	-13.632600	 24.403500	-1.015319	-4.926104	 0.222574	 12.295860	 77.331540	-7.468486	-1.288183	 28.361890	 2.710176	 0.693581	 2.767859	-8.723256	-1.628293	 3.348120	 3.673367	 1.516061	-4.215895	-10.681910	-101.478000	 1.740674	 90.353390	 58.706040	 43.387510	-44.909910	 22.356510	 4.143492	 55.176540	-18.254450	 3.893932	-34.605590	-6.580301	 5.266122	 0.000000	 0.000000	 0.000000	 0.000000	 0.000000	 0.000000	 0.000000	 0.089846	-3.783161	 0.005928	 0.023221	 1.006905	-2.642086	 101.796200	-0.213320	-89.955450	-5.013334	 56.026920	-3.442291	-33.972040	 16.583280	-46.580130	-4.460143	-23.426260	 70.883850	 15.208500	 5.323790	 0.000000	 0.000000	 0.000000	 0.000000	 0.000000	 0.000000	 0.000000
 0.002129	 1.255261	-0.176577	-0.299741	 0.003713	-179.994400	-174.997700	 1.935237	-24.982350	 4.028359	-18.345730	 0.393306	-10.125130	 75.835110	 7.661119	 1.292262	 28.425850	-2.713146	 175.940700	-13.632600	 24.403500	-1.015319	-4.926104	 0.222574	 12.295860	 77.331540	-7.468486	-1.288183	 28.361890	 2.710176	 0.371801	 2.829063	-2.139739	-1.628293	 3.348120	 3.673367	 1.516061	-4.215895	-10.681910	-101.478000	 1.740674	 90.353390	 58.811200	 43.443890	-45.047720	 22.773520	 4.142953	 56.270530	-19.356710	 7.137410	-32.764280	-6.580301	 5.266122	 0.000000	 0.000000	 0.000000	 0.000000	 0.000000	 0.000000	 0.000000	 0.089846	-3.783161	 0.005928	 0.023221	 1.006905	-2.642086	 101.796200	-0.213320	-89.955450	-11.782690	 63.008750	 2.217423	-23.697130	 3.838396	-54.420170	-8.255497	-11.453340	 72.616800	 15.208500	 5.323790	 0.000000	 0.000000	 0.000000	 0.000000	 0.000000	 0.000000	 0.000000
 0.002129	 1.255261	-0.176577	-0.299741	 0.003713	-179.994400	-174.997700	 1.935237	-24.982350	 4.028359	-18.345730	 0.393306	-10.125130	 75.835110	 7.661119	 1.292262	 28.425850	-2.713146	 175.940700	-13.632600	 24.403500	-1.015319	-4.926104	 0.222574	 12.295860	 77.331540	-7.468486	-1.288183	 28.361890	 2.710176	 0.060923	 2.852720	 4.126461	-1.628293	 3.348120	 3.673367	 1.516061	-4.215895	-10.681910	-101.478000	 1.740674	 90.353390	 58.811200	 43.443890	-45.047720	 23.012690	 4.142534	 56.897950	-20.152970	 9.500963	-29.968620	-6.580301	 5.266122	 0.000000	 0.000000	 0.000000	 0.000000	 0.000000	 0.000000	 0.000000	 0.089846	-3.783161	 0.005928	 0.023221	 1.006905	-2.642086	 101.796200	-0.213320	-89.955450	-11.782690	 63.008750	 2.217423	-23.936070	 3.830284	-55.048880	-9.178947	-9.133515	 69.771290	 15.208500	 5.323790	 0.000000	 0.000000	 0.000000	 0.000000	 0.000000	 0.000000	 0.000000
 0.002129	 1.255261	-0.176577	-0.299741	 0.003713	-179.994400	-174.997700	 1.935237	-24.982350	 4.028359	-18.345730	 0.393306	-10.125130	 75.835110	 7.661119	 1.292262	 28.425850	-2.713146	 175.940700	-13.632600	 24.403500	-1.015319	-4.926104	 0.222574	 12.295860	 77.331540	-7.468486	-1.288183	 28.361890	 2.710176	 0.036582	 2.853136	 4.615502	-1.628293	 3.348120	 3.673367	 1.516061	-4.215895	-10.681910	-101.478000	 1.740674	 90.353390	 58.811200	 43.443890	-45.047720	 23.025470	 4.142516	 56.931540	-20.205980	 9.657256	-29.710170	-6.580301	 5.266122	 0.000000	 0.000000	 0.000000	 0.000000	 0.000000	 0.000000	 0.000000	 0.089846	-3.783161	 0.005928	 0.023221	 1.006905	-2.642086	 101.796200	-0.213320	-89.955450	-11.782690	 63.008750	 2.217423	-23.948860	 3.829852	-55.082550	-9.239578	-8.979946	 69.512180	 15.208500	 5.323790	 0.000000	 0.000000	 0.000000	 0.000000	 0.000000	 0.000000	 0.000000
 0.002129	 1.255261	-0.176577	-0.299741	 0.003713	-179.994400	-174.997700	 1.935237	-24.982350	 4.028359	-18.345730	 0.393306	-10.125130	 75.835110	 7.661119	 1.292262	 28.425850	-2.713146	 175.940700	-13.632600	 24.403500	-1.015319	-4.926104	 0.222574	 12.295860	 77.331540	-7.468486	-1.288183	 28.361890	 2.710176	 0.036582	 2.853136	 4.615502	-1.628293	 3.348120	 3.673367	 1.516061	-4.215895	-10.681910	-101.478000	 1.740674	 90.353390	 58.815990	 43.446380	-45.050290	 23.025780	 4.142909	 56.931380	-20.204820	 9.641563	-29.712160	-6.580301	 5.266122	 0.000000	 0.000000	 0.000000	 0.000000	 0.000000	 0.000000	 0.000000	 0.089846	-3.783161	 0.005928	 0.023221	 1.006905	-2.642086	 101.796200	-0.213320	-89.955450	-11.659880	 63.001850	 2.107177	-23.946400	 3.826051	-55.087650	-9.450044	-9.039476	 69.352170	 15.208500	 5.323790	 0.000000	 0.000000	 0.000000	 0.000000	 0.000000	 0.000000	 0.000000
